<?xml version="1.0" standalone="no"?>
<!DOCTYPE svg PUBLIC "-//W3C//DTD SVG 20010904//EN"
 "http://www.w3.org/TR/2001/REC-SVG-20010904/DTD/svg10.dtd">
<svg version="1.0" xmlns="http://www.w3.org/2000/svg"
 width="512.000000pt" height="512.000000pt" viewBox="0 0 512.000000 512.000000"
 preserveAspectRatio="xMidYMid meet">
<metadata>
Created by potrace 1.14, written by Peter Selinger 2001-2017
</metadata>
<g transform="translate(0.000000,512.000000) scale(0.100000,-0.100000)"
fill="#000000" stroke="none">
<path d="M0 2560 l0 -2560 2560 0 2560 0 0 2560 0 2560 -2560 0 -2560 0 0
-2560z m5040 0 l0 -2480 -2480 0 -2480 0 0 2480 0 2480 2480 0 2480 0 0 -2480z"/>
<path d="M760 3925 l264 -265 171 -2 170 -3 5 -543 5 -543 280 280 c154 154
283 281 288 281 4 0 7 -165 7 -367 l0 -368 -295 -295 -295 -296 0 -432 c0
-238 3 -432 8 -432 4 0 136 131 294 292 l287 293 1 230 0 230 520 -520 c286
-286 523 -521 527 -522 5 -2 373 361 818 807 l810 810 -815 815 -815 815
-1250 0 -1250 0 265 -265z m1660 -311 c-36 -37 -448 -447 -465 -463 -3 -2 -5
111 -5 252 l0 257 257 0 257 0 -44 -46z m1012 -792 l-178 -2 -264 -265 -265
-265 440 0 440 0 -300 -300 c-165 -165 -304 -300 -310 -300 -6 0 -206 196
-445 435 l-435 435 440 440 440 440 308 -308 307 -307 -178 -3z"/>
</g>
</svg>
