<svg width="32" height="32" viewBox="0 0 32 32" fill="none" xmlns="http://www.w3.org/2000/svg">
<path fill-rule="evenodd" clip-rule="evenodd" d="M4 5.33333C4 4.97971 4.14048 4.64057 4.39052 4.39052C4.64057 4.14048 4.97971 4 5.33333 4H26.6667C27.0203 4 27.3594 4.14048 27.6095 4.39052C27.8595 4.64057 28 4.97971 28 5.33333V24C28 25.0609 27.5786 26.0783 26.8284 26.8284C26.0783 27.5786 25.0609 28 24 28H8C6.93913 28 5.92172 27.5786 5.17157 26.8284C4.42143 26.0783 4 25.0609 4 24V5.33333ZM20 18.6667V13.3333C20 12.9797 19.8595 12.6406 19.6095 12.3905C19.3594 12.1405 19.0203 12 18.6667 12H13.3333C12.9797 12 12.6406 12.1405 12.3905 12.3905C12.1405 12.6406 12 12.9797 12 13.3333C12 13.687 12.1405 14.0261 12.3905 14.2761C12.6406 14.5262 12.9797 14.6667 13.3333 14.6667H15.448L12.3907 17.724C12.2633 17.847 12.1617 17.9941 12.0919 18.1568C12.022 18.3195 11.9852 18.4944 11.9837 18.6715C11.9821 18.8485 12.0159 19.0241 12.0829 19.1879C12.1499 19.3518 12.249 19.5007 12.3741 19.6259C12.4993 19.7511 12.6482 19.8501 12.8121 19.9171C12.9759 19.9841 13.1515 20.0179 13.3285 20.0163C13.5056 20.0148 13.6805 19.978 13.8432 19.9081C14.0059 19.8383 14.153 19.7367 14.276 19.6093L17.3333 16.552V18.6667C17.3333 19.0203 17.4738 19.3594 17.7239 19.6095C17.9739 19.8595 18.313 20 18.6667 20C19.0203 20 19.3594 19.8595 19.6095 19.6095C19.8595 19.3594 20 19.0203 20 18.6667Z" fill="white"/>
</svg>
